<svg version="1.1" xmlns="http://www.w3.org/2000/svg" xmlns:xlink="http://www.w3.org/1999/xlink" width="218.66667" height="159" viewBox="0,0,218.66667,159"><g transform="translate(-210.66666,-100.5)"><g stroke-miterlimit="10"><path d="M211.66667,258.5v-157h216.66667v157z" fill="#ffffff" stroke="#000000" stroke-width="2" stroke-linecap="butt"/><g><path d="M297.37651,181.39829c-0.77225,-12.49461 8.7306,-23.24953 21.22521,-24.02178c12.49461,-0.77225 23.24953,8.7306 24.02178,21.22521c0.77225,12.49461 -8.7306,23.24953 -21.22521,24.02178c-12.49461,0.77225 -23.24953,-8.7306 -24.02178,-21.22521z" fill="none" stroke="#000000" stroke-width="4" stroke-linecap="butt"/><path d="M308.97431,180.53601c-0.08517,-1.37808 0.96293,-2.56429 2.34101,-2.64946c1.37808,-0.08517 2.56429,0.96294 2.64947,2.34102c0.08517,1.37808 -0.96294,2.56428 -2.34102,2.64946c-1.37808,0.08517 -2.56428,-0.96293 -2.64946,-2.34101z" fill="#000000" stroke="none" stroke-width="0.5" stroke-linecap="butt"/><path d="M326.65873,180.27791c-0.08517,-1.37808 0.96294,-2.56429 2.34102,-2.64946c1.37808,-0.08517 2.56428,0.96294 2.64946,2.34102c0.08517,1.37808 -0.96293,2.56428 -2.34101,2.64946c-1.37808,0.08517 -2.56429,-0.96293 -2.64947,-2.34101z" fill="#000000" stroke="none" stroke-width="0.5" stroke-linecap="butt"/><path d="M303.91845,185.19009c0,0 10.53959,8.05309 16.20202,8.04121c5.52049,-0.01158 16.72301,-7.57143 16.72301,-7.57143" fill="none" stroke="#000000" stroke-width="4" stroke-linecap="round"/></g><path d="M235.62651,180.98162c-0.77225,-12.49461 8.7306,-23.24953 21.22521,-24.02178c12.49461,-0.77225 23.24953,8.7306 24.02178,21.22521c0.77225,12.49461 -8.7306,23.24953 -21.22521,24.02178c-12.49461,0.77225 -23.24953,-8.7306 -24.02178,-21.22521z" fill="#000000" stroke="#ffffff" stroke-width="4" stroke-linecap="butt"/><path d="M246.97431,179.86934c-0.08517,-1.37808 0.96293,-2.56429 2.34101,-2.64946c1.37808,-0.08517 2.56429,0.96294 2.64947,2.34102c0.08517,1.37808 -0.96294,2.56428 -2.34102,2.64946c-1.37808,0.08517 -2.56428,-0.96293 -2.64946,-2.34101z" fill="#ffffff" stroke="#ffffff" stroke-width="0.5" stroke-linecap="butt"/><path d="M264.90873,179.86124c-0.08517,-1.37808 0.96294,-2.56429 2.34102,-2.64946c1.37808,-0.08517 2.56428,0.96294 2.64946,2.34102c0.08517,1.37808 -0.96293,2.56428 -2.34101,2.64946c-1.37808,0.08517 -2.56429,-0.96293 -2.64947,-2.34101z" fill="#fdfdfd" stroke="#ffffff" stroke-width="0.5" stroke-linecap="butt"/><path d="M241.91845,184.52342c0,0 10.53959,8.05309 16.20202,8.04121c5.52049,-0.01158 16.72301,-7.57143 16.72301,-7.57143" fill="#000000" stroke="#ffffff" stroke-width="4" stroke-linecap="round"/><path d="M360.95984,181.48162c-0.77225,-12.49461 8.7306,-23.24953 21.22521,-24.02178c12.49461,-0.77225 23.24953,8.7306 24.02178,21.22521c0.77225,12.49461 -8.7306,23.24953 -21.22521,24.02178c-12.49461,0.77225 -23.24953,-8.7306 -24.02178,-21.22521z" fill="#000000" stroke="#ffffff" stroke-width="4" stroke-linecap="butt"/><path d="M372.30764,180.36934c-0.08518,-1.37808 0.96294,-2.56429 2.34102,-2.64946c1.37808,-0.08517 2.56429,0.96294 2.64946,2.34102c0.08518,1.37808 -0.96294,2.56429 -2.34102,2.64946c-1.37808,0.08517 -2.56429,-0.96293 -2.64946,-2.34101z" fill="#ffffff" stroke="#ffffff" stroke-width="0.5" stroke-linecap="butt"/><path d="M390.24206,180.36125c-0.08517,-1.37808 0.96294,-2.56429 2.34102,-2.64946c1.37808,-0.08517 2.56428,0.96293 2.64946,2.34101c0.08517,1.37808 -0.96293,2.56429 -2.34101,2.64946c-1.37808,0.08517 -2.56429,-0.96293 -2.64947,-2.34101z" fill="#fdfdfd" stroke="#ffffff" stroke-width="0.5" stroke-linecap="butt"/><path d="M367.25178,185.02343c0,0 10.53959,8.05309 16.20202,8.04121c5.52049,-0.01158 16.72301,-7.57143 16.72301,-7.57143" fill="#000000" stroke="#ffffff" stroke-width="4" stroke-linecap="round"/><text transform="translate(259.46224,144.02148) scale(0.5,0.5)" font-size="40" xml:space="preserve" fill="#000000" stroke="none" stroke-width="1" stroke-linecap="butt" font-family="Serif" font-weight="normal" text-anchor="start"><tspan x="0" dy="0">you are an idiot</tspan></text><text transform="translate(251.12891,230.68815) scale(0.5,0.5)" font-size="40" xml:space="preserve" fill="#000000" stroke="none" stroke-width="1" stroke-linecap="butt" font-family="Serif" font-weight="normal" text-anchor="start"><tspan x="0" dy="0">you are an idiot</tspan></text></g></g></svg>