<svg version="1.1" xmlns="http://www.w3.org/2000/svg" xmlns:xlink="http://www.w3.org/1999/xlink" width="318.22717" height="136.83256" viewBox="0,0,318.22717,136.83256"><defs><linearGradient x1="320.00003" y1="64.33334" x2="320.00003" y2="295.66668" gradientUnits="userSpaceOnUse" id="color-1"><stop offset="0" stop-color="#ffffff"/><stop offset="1" stop-color="#efefef"/></linearGradient></defs><g transform="translate(-111.41669,-160.08412)"><g fill="url(#color-1)" stroke="#000000" stroke-width="2.5" stroke-miterlimit="10"><path d="M112.6667,295.66668v-119.1405c1.04123,-0.13986 2.0827,-0.27832 3.12436,-0.41624c3.46972,-0.45939 6.93944,-0.91878 10.40916,-1.37817c3.46969,-0.45939 6.93959,-0.91722 10.40943,-1.37552c3.47306,-0.45873 6.94626,-0.91636 10.41915,-1.37636c3.42752,-0.72434 6.85455,-1.451 10.2818,-2.17659c3.44051,-0.7284 6.83957,-1.48037 10.2264,-2.42924c3.40215,-0.95316 6.76002,-1.82376 10.01161,-3.21236c4.06803,-1.73727 4.69146,-5.12657 6.78963,-0.47747c1.44445,3.20058 3.23952,6.2114 4.9606,9.27094c1.10619,1.96647 2.32218,3.87526 3.54994,5.77463c-0.01317,0.07512 -0.00393,0.18601 0.13229,0.25665c0.0161,0.00835 0.03164,0.01493 0.04661,0.01994c0.6171,0.95356 1.23597,1.90534 1.8442,2.86146c1.91368,3.00827 3.99983,5.68992 6.28976,8.42097c2.24192,2.67378 4.37461,5.52644 6.87407,7.9617c2.50686,2.44247 5.01371,4.88494 7.52057,7.32742c2.53149,2.46648 5.06499,4.80924 7.81356,7.03227c2.72132,2.201 5.44264,4.402 8.16396,6.60301c2.71403,2.1951 5.78578,3.99043 8.69971,5.91165c2.97974,1.9646 5.81342,3.8432 9.07847,5.29442c3.18562,1.41592 6.3545,3.04193 9.64325,4.19741c3.37789,1.1868 6.54603,2.43107 10.11029,2.84302c3.44426,0.39808 5.67683,-2.93418 9.3502,-3.56516c3.52788,-0.60599 6.80723,-0.84786 10.38614,-0.85719c3.4998,-0.00912 6.99953,-0.01312 10.49934,-0.01327c3.5,-0.00015 6.99999,-0.0004 10.49999,-0.00041c3.5,0 7,-0.00001 10.5,-0.00001c3.5,0 7,-0.00001 10.5,-0.00001c3.5,0 7,0 10.5,0c3.5,0 7,0 10.5,0c3.5,0 7,0 10.5,0c3.5,0 7,0 10.5,0c3.52056,0 6.98919,-0.27463 10.49797,-0.55159c3.5045,-0.27662 6.97095,-0.60772 10.45385,-1.08644c3.07203,-0.43034 4.21358,4.57828 5.66015,7.16955c1.70816,3.05906 3.43394,6.102 5.21283,9.12052c1.78388,3.02698 3.66599,5.96054 5.60758,8.88861c1.9379,2.9225 3.9398,5.78728 5.97626,8.64188c2.03908,2.85827 4.17534,5.64025 6.30981,8.42793c1.77329,1.65194 7.20947,5.28487 5.5699,6.13953c-3.21109,1.67385 -6.34994,2.32236 -9.8786,3.0978c-3.42219,0.75205 -6.85879,1.28009 -10.32137,1.81288c-3.45429,0.53152 -6.96164,0.93341 -10.38153,1.65318c-3.42497,0.72083 -6.84993,1.44167 -10.2749,2.1625c-3.42556,0.72096 -6.85163,1.43866 -10.27238,2.18214c-3.42015,0.74335 -6.8403,1.4867 -10.26045,2.23005c-3.37689,0.73395 -6.65255,1.75653 -9.9593,2.75446z"/></g></g></svg>