<svg version="1.1" xmlns="http://www.w3.org/2000/svg" xmlns:xlink="http://www.w3.org/1999/xlink" width="147.24009" height="31.64099" viewBox="0,0,147.24009,31.64099"><g transform="translate(-218.80548,-163.64648)"><g stroke-miterlimit="10"><text transform="translate(274.79557,185.02148) scale(0.5,0.5)" font-size="40" xml:space="preserve" fill="#ff0000" stroke="#000000" stroke-width="3" font-family="&quot;Google Archivo Black&quot;, Archivo Black" font-weight="normal" text-anchor="start"><tspan x="0" dy="0">DEFEND</tspan></text><path d="M244.53155,177.35482c7.62055,0.19078 19.08416,-6.2731 22.86619,0.34546c0.73685,0.43488 1.23117,1.23698 1.23117,2.15454c0,1.26334 -0.93708,2.30781 -2.15408,2.47626c-11.21067,8.81448 -45.188,-5.5582 -21.94328,-4.97626z" fill="#ffffff" stroke="none" stroke-width="0.5"/><path d="M227.89138,175.01044c-1.03742,0.4084 -3.48417,0.39077 -3.03288,1.41026c1.76662,3.99092 19.13849,13.55445 15.60374,18.26745c-3.35406,4.47208 -22.97244,-17.46884 -21.5868,-19.96007c2.66926,-4.79903 27.99423,-12.01506 29.25377,-8.23641c0.51128,0.45776 0.83303,1.12288 0.83303,1.86315c0,1.38071 -1.11929,2.5 -2.5,2.5c-0.32844,0 -0.64209,-0.06334 -0.92939,-0.17846c-4.8023,1.89728 -12.74668,2.40716 -17.64146,4.33408z" fill="#ffffff" stroke="none" stroke-width="0.5"/></g></g></svg>