<svg version="1.1" xmlns="http://www.w3.org/2000/svg" xmlns:xlink="http://www.w3.org/1999/xlink" width="87.38795" height="93.71682" viewBox="0,0,87.38795,93.71682"><defs><linearGradient x1="320.00003" y1="64.33334" x2="320.00003" y2="295.66668" gradientUnits="userSpaceOnUse" id="color-1"><stop offset="0" stop-color="#ffffff"/><stop offset="1" stop-color="#efefef"/></linearGradient></defs><g transform="translate(-111.41666,-86.97066)"><g fill="url(#color-1)" stroke="#000000" stroke-width="2.5" stroke-miterlimit="10"><path d="M112.6667,89.36428c2.1265,1.48076 4.28001,2.91863 6.43729,4.35906c2.90917,1.94247 5.8358,3.86077 8.70586,5.86064c2.87162,2.00095 5.74324,4.0019 8.61486,6.00285c2.87222,2.00137 5.78283,3.9484 8.67903,5.91489c1.67423,1.13677 3.32691,2.30254 4.97249,3.47872c-0.8095,1.99589 -3.98423,4.45255 -5.16767,6.76805c-1.62344,3.18916 -1.82995,6.84733 -1.83389,10.35107c-0.00469,4.19375 4.61279,5.05071 7.71704,6.29114c3.25645,1.29999 6.32586,2.96546 9.63268,4.17499c3.28703,1.20229 6.57775,2.38238 9.84747,3.63184c3.29842,1.26037 6.61065,2.29369 10.03558,3.15169c3.28262,0.82235 6.88736,1.32642 9.88583,3.03716c2.18745,1.24432 8.27092,2.52709 7.24601,5.25963c-1.22581,3.28329 -1.73694,6.76614 -2.5728,10.16468c-0.67422,2.74508 0.20716,8.01434 -1.59049,10.06707c-0.05699,0.10919 -0.11399,0.21838 -0.17098,0.32756c-1.16656,-1.80728 -2.31836,-3.62511 -3.3704,-5.49531c-1.71381,-3.04662 -3.50232,-6.04447 -4.94064,-9.23148c-2.26491,-5.01856 -3.31908,-1.53727 -7.44174,0.22333c-3.23129,1.37994 -6.56899,2.24345 -9.95013,3.19073c-3.37651,0.94598 -6.76503,1.69536 -10.19508,2.42155c-3.42095,0.72426 -6.84214,1.4474 -10.26282,2.17296c-3.46684,0.45656 -6.93337,0.91558 -10.40004,1.37346c-3.46989,0.45831 -6.93984,0.91615 -10.40959,1.37554c-3.46972,0.45939 -6.93944,0.91878 -10.40916,1.37817c-1.01978,0.13502 -2.03937,0.27056 -3.05874,0.40742z"/></g></g></svg>