<svg version="1.1" xmlns="http://www.w3.org/2000/svg" xmlns:xlink="http://www.w3.org/1999/xlink" width="711" height="379" viewBox="0,0,711,379"><defs><linearGradient x1="320" y1="-8.5" x2="320" y2="368.5" gradientUnits="userSpaceOnUse" id="color-1"><stop offset="0" stop-color="#fcfcfc"/><stop offset="1" stop-color="#bfbfbf"/></linearGradient></defs><g transform="translate(35.5,9.5)"><g stroke-miterlimit="10"><path d="M-34.5,368.5v-377h709v377z" fill="url(#color-1)" stroke="#4c4c4c" stroke-width="2" stroke-linecap="butt"/><path d="M64,7.25c0,-0.75 0.75,-0.75 0.75,-0.75l0.66597,0.00472c1.39192,-0.32284 4.82403,-1.1393 7.41456,-1.17932c-1.78728,-0.78839 -3.70922,-1.50391 -5.47761,-1.83997c0,0 -0.73544,-0.14709 -0.58835,-0.88252c0.14709,-0.73544 0.88252,-0.58835 0.88252,-0.58835c2.50879,0.52226 5.25916,1.64117 7.60198,2.78152l1.37212,0.45402c0.30727,0.09376 0.53079,0.37951 0.53079,0.71746c0,0.35806 -0.25092,0.65752 -0.58651,0.73213l-1.13689,0.27873l-0.05981,-0.24394c-3.05505,0.91938 -6.65997,0.55713 -9.78475,1.26079l-0.83403,0.00472c0,0 -0.75,0 -0.75,-0.75z" fill="#000000" stroke="none" stroke-width="0.5" stroke-linecap="butt"/><path d="M52,0.75c0,-0.41421 0.33579,-0.75 0.75,-0.75c0.41421,0 0.75,0.33579 0.75,0.75c0,0.41421 -0.33579,0.75 -0.75,0.75c-0.41421,0 -0.75,-0.33579 -0.75,-0.75z" fill="#000000" stroke="none" stroke-width="0.5" stroke-linecap="butt"/><path d="M65,-1.75c0,-0.41421 0.33579,-0.75 0.75,-0.75c0.41421,0 0.75,0.33579 0.75,0.75c0,0.41421 -0.33579,0.75 -0.75,0.75c-0.41421,0 -0.75,-0.33579 -0.75,-0.75z" fill="#000000" stroke="none" stroke-width="0.5" stroke-linecap="butt"/><text transform="translate(50,15.37542) scale(0.18577,0.18577)" font-size="40" xml:space="preserve" fill="#000000" stroke="none" stroke-width="1" stroke-linecap="butt" font-family="Serif" font-weight="normal" text-anchor="start"><tspan x="0" dy="0">pangOS</tspan></text><text transform="translate(569.5,4.24141) scale(0.24072,0.24072)" font-size="40" xml:space="preserve" fill="#000000" stroke="none" stroke-width="1" stroke-linecap="butt" font-family="Serif" font-weight="normal" text-anchor="start"><tspan x="0" dy="0">it's today 'o clock</tspan></text><text transform="translate(202.46779,83.09728) scale(1.12925,1.12925)" font-size="40" xml:space="preserve" fill="#000000" stroke="none" stroke-width="1" stroke-linecap="butt" font-family="Sans Serif" font-weight="normal" text-anchor="start"><tspan x="0" dy="0">UPGRADES</tspan></text><path d="M358,-2.16667h-76" fill="none" stroke="#000000" stroke-width="0.5" stroke-linecap="round"/><path d="M358,2.83333l-38,9.33333l-38,-9.33333" fill="none" stroke="#000000" stroke-width="0.5" stroke-linecap="round"/></g></g></svg>