<svg version="1.1" xmlns="http://www.w3.org/2000/svg" xmlns:xlink="http://www.w3.org/1999/xlink" width="69.57058" height="138.63338" viewBox="0,0,69.57058,138.63338"><defs><linearGradient x1="320.00003" y1="64.33334" x2="320.00003" y2="295.66668" gradientUnits="userSpaceOnUse" id="color-1"><stop offset="0" stop-color="#ffffff"/><stop offset="1" stop-color="#efefef"/></linearGradient></defs><g transform="translate(-459.01279,-158.2833)"><g fill="url(#color-1)" stroke="#000000" stroke-width="2.5" stroke-miterlimit="10"><path d="M527.33336,295.66668h-50.61594c-1.26181,-1.77565 -2.6223,-3.45216 -4.03675,-5.2058c-2.19808,-2.72518 -4.54051,-5.31309 -6.63619,-8.1175c-2.06633,-2.7642 -4.12697,-5.68379 -5.78169,-8.70613c-1.80411,-3.29519 -1.77903,-6.30961 -1.47057,-9.98732c0.2548,-3.03799 2.81126,-6.79131 5.05899,-8.68871c2.68564,-2.26706 5.31481,-4.49047 8.22489,-6.4637c2.88862,-1.95868 5.91953,-3.80327 8.66325,-5.95988c2.75171,-2.16289 5.50342,-4.32578 8.25513,-6.48867c2.69488,-2.11822 4.91648,-5.18031 7.19353,-7.74448c1.81496,-4.14151 2.42318,-5.66891 0.75988,-9.92746c-1.21135,-3.10141 -4.40353,-5.68132 -6.63471,-8.14499c-2.31054,-2.54634 -5.33884,-4.6611 -7.95126,-6.90001c-2.65783,-2.27783 -5.32624,-4.54315 -7.99337,-6.81008c-2.64978,-2.25217 -4.99902,-4.89376 -7.4373,-7.37303c-2.37449,-2.40548 -4.20593,-5.6859 -5.08519,-8.8833c-0.92939,-3.37967 0.35299,-3.39663 4.89702,-5.2134c3.27452,-1.3092 6.46378,-2.52759 9.86851,-3.45164c3.37429,-0.91579 6.73835,-1.88155 10.14186,-2.68238c3.40698,-0.80165 6.81416,-1.60246 10.22091,-2.4051c3.40673,-0.80263 6.81345,-1.60527 10.22018,-2.4079c3.40747,-0.80281 6.79915,-1.67472 10.19599,-2.52137c3.26276,-0.81323 6.64812,-1.09177 9.94284,-1.76794z"/></g></g></svg>