<svg version="1.1" xmlns="http://www.w3.org/2000/svg" xmlns:xlink="http://www.w3.org/1999/xlink" width="218.66667" height="159" viewBox="0,0,218.66667,159"><g transform="translate(-210.66668,-100.5)"><g stroke-miterlimit="10"><path d="M211.66669,258.5v-157h216.66667v157z" fill="#ffffff" stroke="#000000" stroke-width="2"/><text transform="translate(215.96224,121.02148) scale(0.5,0.5)" font-size="40" xml:space="preserve" fill="#000000" stroke="none" stroke-width="1" font-family="Serif" font-weight="normal" text-anchor="start"><tspan x="0" dy="0">your antivirus sucks</tspan><tspan x="0" dy="46.15px">- hunky tunk</tspan></text><path d="M249.96224,163.04298c-0.99924,0.03213 0.92195,1.77429 1.3858,2.65994c0.09677,0.18476 0.22801,0.41277 0.38157,0.67388l0.27372,-0.35794l0.00061,-0.01761l0.04064,-0.03633l0.09843,-0.12872l0.42056,-0.33523l0.40097,-0.35844l0.14339,-0.07547l0.04263,-0.03398l0.01747,0.00235l1.50383,-0.79149c-0.09387,-0.11792 -0.1773,-0.24452 -0.24891,-0.3784c-1.83131,-0.37919 -3.67084,-0.84796 -4.46071,-0.82256zM256.28231,160.21198c0.11328,-0.01571 0.22899,-0.02383 0.3466,-0.02383c1.24494,0 2.27734,0.90998 2.46835,2.10109l3.61374,-1.42648l0.31776,-0.04186l0.29933,-0.11459l5.5,-0.66667l0.11644,0.01456l0.11299,-0.0317l5.83333,-0.16667l0.03582,0.00788l0.03558,-0.00889h4.38334c-0.03279,-0.16155 -0.05001,-0.32877 -0.05001,-0.5c0,-0.38426 0.08669,-0.74826 0.24158,-1.07353c-0.31242,-4.11976 4.15231,-9.27718 8.50842,-7.28064c2.3303,1.06805 4.31337,5.3965 4.95669,9.17701l0.26158,0.01414l0.20317,0.06262l0.21254,-0.00487l4.87721,1.1013l0.06127,0.03089l0.06858,0.00211l6.06692,1.71622l4.81266,1.12295l0.2049,0.10517l0.22713,0.03819l0.19587,0.0855c0.25778,-1.10626 1.25006,-1.9304 2.43482,-1.9304c0.14705,0 0.29114,0.0127 0.43122,0.03705c0.10689,-0.01949 0.21498,-0.03205 0.32406,-0.03705c2.92078,-0.13394 9.91078,-4.55839 12.33798,-2.13619c2.34948,2.34465 1.82092,9.06573 0.2997,11.82364l1.34249,0.90943l0.16,0.17864l0.20564,0.12339l2.16667,2.16667l0.02865,0.04776l0.04647,0.0307l1.83333,2l0.16625,0.30652l0.22693,0.26476l1.66667,3.33333l0.0103,0.04635l0.02955,0.03717l1.66667,3.66667l0.00383,0.02087l0.01293,0.01682l1.66667,3.83333l0.03226,0.19356l0.09411,0.1722l0.96564,3.70161l0.29059,0.76279c0.22708,0.00076 0.44703,0.0318 0.65602,0.08929c1.78515,-0.38372 3.87307,0.28056 6.62476,0.60229c2.22133,0.25972 12.32906,0.3863 11.71061,4.97507c-0.42497,3.15325 -11.03672,12.83025 -15,12.35758v5.30908l-0.0793,0.31722l-0.00511,0.32694l-0.66667,2.5l-0.10775,0.19465l-0.04238,0.21841l-1.16667,2.5l-0.21905,0.26999l-0.15718,0.31012l-2.16667,2.5l-0.21987,0.15423l-0.16936,0.20844l-0.07505,0.05628c0.04902,0.19535 0.07505,0.39983 0.07505,0.61038c0,0.18803 -0.02076,0.37121 -0.06011,0.54737c2.67998,3.53417 4.89362,9.39292 1.91093,11.99074c-0.80676,0.70266 -10.015,-2.04449 -16.24504,-5.05563l-0.10442,0.01492l-0.09371,0.05692l-4.77532,1.482l-0.08229,0.00461l-0.07305,0.03817l-4.22468,1.018l-0.01025,-0.00009l-0.00912,0.00467l-7.16667,1.66667l-0.09684,-0.0016l-0.0893,0.03751l-4.33333,0.66667l-0.01378,-0.00128l-0.01281,0.00522l-3.5,0.5l-0.04723,-0.00489l-0.04461,0.01628l-0.3235,0.03405c2.09157,5.81468 3.08619,13.53043 -0.64764,14.18473c-3.24556,0.56874 -10.46818,-8.6468 -12.63889,-13.37171h-22.15168l-0.28197,-0.07049l-0.29062,0.00404l-2.83333,-0.66667l-0.15347,-0.07913l-0.17138,-0.02105l-1.25637,-0.48322l-0.28893,-0.0321l-0.24932,-0.0926l-0.26517,-0.0204l-0.99458,-0.33153l-0.03798,0.00769l-0.52018,-0.36123l-0.53429,-0.34001l-0.00023,-0.00114l-0.02918,-0.00821l-0.82628,-0.47216c-1.62117,1.51442 -3.43686,2.76869 -4.13932,2.9254c-14.34249,3.19956 -10.67484,-12.93007 -6.94859,-15.05935c0.43488,-0.73685 1.23698,-1.23117 2.15454,-1.23117c0.1806,0 0.35673,0.01915 0.52647,0.05553l-0.31475,-0.71535l-0.01995,-0.11653l-0.06347,-0.09974l-1.5,-4.5l-0.00271,-0.03523l-0.01814,-0.03032l-1.66667,-5.5l-0.01156,-0.23454l-0.08124,-0.22033l-0.83333,-7.66667l0.01878,-0.13649l-0.03341,-0.13366l0,-10.46764c-2.30382,1.46142 -4.44068,2.6185 -4.74741,2.79787c-1.44914,0.84744 -5.354,1.94641 -4.04607,2.99878c1.76397,1.4193 12.42853,0.14011 7.04348,5.52515c-2.21496,2.21496 -13.0667,-0.81046 -13.41667,-3.52083c-0.85098,-6.59055 10.05492,-11.32242 15.60748,-13.95207l0.7836,-3.58218l0.02576,-0.05194l0.00091,-0.05797l1.28831,-4.83117l0.12922,-0.23344l0.06016,-0.25995l2.03007,-3.9729l1.81916,-3.80369l0.09497,-0.11482l0.04664,-0.14152l0.42989,-0.68066c-3.82424,-6.0062 -7.21702,-19.42951 8.0039,-11.12719zM244.99868,236.85482c1.89501,1.53092 3.85338,-0.10095 5.64431,-1.78191l-0.05914,-1.06459l-1.05387,-1.62871l-0.00831,-0.02432l-0.01843,-0.01792l-2.16667,-3.5l-0.02862,-0.08954c-0.03617,0.06412 -0.07508,0.12649 -0.11658,0.18694c-0.62034,3.00642 -4.2686,6.24299 -2.1927,7.92005zM317.53156,230.51773c0,-3.1101 2.78018,-2.51939 6.0741,-1.06283l2.2375,-0.91158l3.61367,-1.5057l2.35914,-2.06425l0.0856,-0.0439l0.06066,-0.07466l2.45265,-1.83949l1.76284,-2.03405l0.92576,-1.98377l0.52541,-1.9703l0,-5.38695l-0.31651,-3.32333l-0.31002,-2.17011l-0.47612,-2.0632l0.00069,-0.03774l-0.01616,-0.03412l-0.46948,-2.34738l-1.03771,-3.11314c-4.37956,5.48663 -30.04136,11.53169 -30.04136,5.47022c0,-1.82481 3.06536,-2.73051 6.64699,-3.26662c-2.89113,0.22892 -6.16656,-0.98926 -8.60032,-5.24171c-0.95802,-1.67392 -1.49656,-4.09766 -0.73417,-5.90833c2.12714,-5.05195 22.90448,-3.67531 30.55999,2.33194l-0.24255,-0.92977l-1.58106,-3.63644l-1.63898,-3.60576l-1.48938,-2.97877l-1.56003,-1.70185l-1.95982,-1.95982l-4.72341,-3.19973l-2.3884,-0.89565l-0.06745,-0.04652l-0.08065,-0.0145l-3.32046,-1.49421l-5.57506,-2.43344l-4.64664,-1.08422l-0.05294,-0.02717l-0.05948,-0.00183l-6.05831,-1.71379l-4.60641,-1.04016l-0.04079,-0.00221c-0.48026,0.95912 -1.3424,1.39213 -2.67819,0.94686c-0.41532,-0.13844 -0.77438,-0.56368 -1.08611,-1.15034l-2.08387,-0.11264l-11.89677,0l-5.68253,0.16236l-5.0671,0.61419l-5.90853,2.33232l-2.55938,1.34704l-1.61078,2.10641c0.32585,1.391 0.03231,2.50393 -1.70188,2.65234l-0.31346,0.49631l-1.77005,3.70101l-0.02152,0.02601l-0.00761,0.03289l-1.92411,3.76553l-1.20527,4.51976l-0.45444,2.07743c0.90176,0.5314 0.58964,1.43683 -0.35535,2.48106c-0.05349,0.27426 -0.15182,0.53249 -0.28704,0.76674v13.61647l0.7935,7.30023l1.58908,5.24397l1.45243,4.35729l1.71611,3.90025l2.06138,3.32992l1.64836,2.54746l0.52305,0.48281c0.67125,0.20459 1.01018,0.56073 1.09985,1.01525l0.31193,0.28794l0.07436,0.1134l0.11138,0.07735l0.45714,0.52244l0.74109,0.29644l0.29289,0.11265l0.43257,0.04806l2.19487,0c0.42612,0 0.82733,0.10661 1.17843,0.29461l0.07157,0.01789l0.01883,0.03296c0.3432,0.20255 0.63378,0.48477 0.84631,0.82121h25.89588l2.51222,-0.31403l0.07864,0.00953l0.0755,-0.02397l0.20761,-0.01298c0.04681,-0.22672 0.12432,-0.44223 0.22799,-0.64197c0.37684,-1.12484 0.91626,-1.47378 1.53409,-1.25456c0.21806,-0.06211 0.44827,-0.09536 0.68625,-0.09536c1.06033,0 1.96649,0.66012 2.32992,1.59181l0.69567,-0.07323l3.44088,-0.49155l4.2263,-0.6502l7.06458,-1.64293l4.13664,-0.99679l1.0373,-0.32192c-0.23488,-0.32267 -0.36198,-0.63079 -0.36198,-0.91894zM332.44183,231.06959l-0.36008,0.18466l-0.32464,0.24159l-2.1625,0.90104c3.50632,1.67184 5.92874,2.27431 3.97343,-2.31273zM321.84462,165.30703c-0.34004,-0.44563 -2.87739,0.93996 -5.40205,1.8808l2.63918,1.18763l2.59164,0.97186l0.2449,0.1689l0.27941,0.10213l0.21311,0.14437c-0.11441,-1.61449 0.04854,-3.65008 -0.56619,-4.45569zM292.69548,241.01178l-1.78046,0.22256c2.69658,3.59821 4.57287,7.37173 2.62042,-0.27505zM347.93095,202.75994c1.05825,-0.69167 4.10252,-1.38633 3.11054,-2.17008c-1.31727,-1.04076 -6.64274,-0.48866 -10.34465,-0.77028l0.13711,0.41134l0.01212,0.15751l0.06763,0.14277l0.49279,2.46396l0.49173,2.13085l-0.00197,0.10829l0.04086,0.1003l0.31443,2.20099c1.66761,-2.08894 4.61796,-4.08188 5.67941,-4.77564zM287.11276,158.37584c-0.30967,-0.89566 -0.49021,-3.28177 -1.14901,-2.60053c-0.95907,0.99174 -0.71311,2.89355 -1.31058,4.0795h2.30907l0.06707,0.01677l0.06787,-0.01312l0.37208,0.02011c-0.14338,-0.67621 -0.2591,-1.22099 -0.3565,-1.50273zM312.62733,200.61347c3.99255,-0.5151 8.316,-0.65082 9.65051,-1.12283c1.1649,-0.41201 2.55903,-1.35974 3.85852,-1.8288c1.1511,-0.4155 4.3315,-0.41699 3.44728,-1.26306c-3.40766,-3.26064 -29.0119,-10.60487 -20.47943,-0.98506c1.21633,1.37133 4.71002,-0.08923 6.17876,-0.57881c0.2642,-0.09499 0.54902,-0.14675 0.84593,-0.14675c0.28244,0 0.55395,0.04684 0.80717,0.13317c0.69079,0.18399 1.08873,0.51762 1.24351,0.93652c0.28319,0.40527 0.44932,0.89839 0.44932,1.43031c0,1.38071 -1.11929,2.5 -2.5,2.5c-0.25181,0 -0.49492,-0.03723 -0.72414,-0.10648c-0.81501,0.46024 -1.76077,0.83 -2.77744,1.0318z" fill="#000000" stroke="none" stroke-width="0.5"/><path d="M274.29557,206.85482c0,0.91756 -0.49431,1.71966 -1.23117,2.15454l-0.01883,0.03296l-0.07157,0.01789c-0.3511,0.188 -0.75232,0.29461 -1.17843,0.29461h-9.33333l-0.38988,-0.09747l-0.40069,-0.03082l-1.34525,-0.44842l-0.02709,0.00739l-0.06157,-0.03694l-0.06609,-0.02203l-0.48463,-0.3084l-0.49257,-0.29554l-0.04926,-0.04926l-0.06058,-0.03855l-0.00551,-0.02754l-1.05132,-1.05132l-0.07243,-0.12071l-0.11198,-0.08532l-0.66667,-0.83333l-0.19512,-0.42571l-0.24216,-0.40082l-0.66667,-2.16667l-0.01998,-0.37292l-0.09057,-0.3623v-0.4832l-0.23714,-0.83l-0.02806,-0.84175l-0.06813,-0.15755l0.05827,-0.13838l-0.005,-0.15007l0.11991,-0.12283l0.32683,-0.77622l1,-1.33333l0.07466,-0.06066l0.0439,-0.0856l1.16667,-1.33333l0.23937,-0.16623l0.18898,-0.22184l2.33333,-1.66667l0.28035,-0.11044l0.24427,-0.17642l2.5,-1l0.11251,-0.01534l0.0976,-0.05803l3.33333,-1l0.11974,-0.00557l0.10833,-0.05132l3.33333,-0.66667l0.01179,0.00056l0.01072,-0.00496l3.5,-0.66667l0.23725,0.01348l0.23053,-0.05763h6.5l0.24953,0.06238l0.25699,-0.01053l4.83333,1l0.13483,0.06496l0.14922,0.01148l0.90891,0.30297l1.24019,0.31005l0.24293,0.12956l0.26876,0.05973l1.95861,0.9793l1.7912,0.81418l0.13114,0.10424l0.15935,0.05168l1.1213,0.70081l0.01378,-0.00095l0.03365,0.03059l0.16461,0.10288l0.3655,0.37904l0.38962,0.3542l0.10768,0.16152l0.0075,0.00778l0.56768,0.48658l0.00548,0.09857l0.08571,0.04898l0.3125,1.25v0.5l-0.25413,1.01652l0.0076,0.11021l-0.04849,0.05334l-0.01748,0.06993l-0.09592,0.05481l-0.70483,0.77532l-2,1.33333l-0.14877,0.05313l-0.11994,0.10281l-1.33333,0.66667l-0.20398,0.04533l-0.17884,0.10805l-2.16667,0.66667l-0.08604,0.00461l-0.07658,0.03949l-2.83333,0.66667l-0.1291,-0.00179l-0.12015,0.04725l-3.83333,0.5l-0.0383,-0.00443l-0.03629,0.01303l-3.33333,0.33333l-0.06871,-0.01005l-0.06653,0.01988l-3.59891,0.16359l-2.25892,0.22589c0.45951,0.45333 0.74431,1.08329 0.74431,1.77977zM275.51539,199.8574l3.59891,-0.16359l3.22849,-0.32285l3.67033,-0.47874l2.62781,-0.61831l1.82982,-0.56302l-0.54301,-0.24682l-0.03717,-0.02955l-0.04635,-0.0103l-1.75454,-0.87727l-1.0671,-0.26677l-0.08649,-0.04613l-0.09774,-0.00752l-0.86022,-0.28674l-4.43845,-0.9183h-6.00812l-3.25693,0.62037l-3.20671,0.64134l-3.11394,0.93418l-2.117,0.8468l-1.85154,1.32253l-0.91304,1.04347l-0.20514,0.27352l0.01043,0.31282l0.08457,0.33829v0.45741l0.41615,1.35249l0.28286,0.35357l0.65145,0.65145l0.55524,0.18508l2.04621,0l-0.37726,-0.39366l0.68213,-2.42536l1.13689,-0.60634l0.66667,-0.16667h0.30776l0.29857,-0.07464h1.45976l2.79591,-0.46598l0.08345,0.00668l0.07879,-0.02828l3.33333,-0.33333l0.06871,0.01005z" fill="#000000" stroke="none" stroke-width="0.5"/><path d="M261.04763,218.17814c7.98054,3.07942 21.37251,1.22247 29.16675,-0.07781c9.23905,-1.54132 19.66475,-4.98144 28.1869,-8.84932c1.7616,-0.79952 9.10816,-6.22953 10.8943,-6.22953c2.32415,0 2.79276,2.15573 2.32408,3.70368c-0.11627,0.384 -0.24393,0.89857 -0.5611,1.19387c-12.9642,12.07012 -47.46734,17.66567 -64.32265,16.25886c-5.66005,-0.47241 -23.31162,-8.76744 -19.26987,-16.85094c-0.00251,-0.04595 -0.00379,-0.09222 -0.00379,-0.1388c0,-1.38071 1.11929,-2.5 2.5,-2.5c1.38071,0 2.5,1.11929 2.5,2.5c0,0.03329 -0.00065,0.06643 -0.00194,0.0994c2.46861,2.91711 4.53422,9.32663 8.58733,10.89058z" fill="#000000" stroke="none" stroke-width="0.5"/></g></g></svg>