<svg version="1.1" xmlns="http://www.w3.org/2000/svg" xmlns:xlink="http://www.w3.org/1999/xlink" width="53.625" height="48.14931" viewBox="0,0,53.625,48.14931"><g transform="translate(-293.1875,-155.92535)"><g fill="#ffffff" stroke="none" stroke-width="0" stroke-miterlimit="10"><path d="M293.19002,170.8623c-0.02863,-3.21563 0.17817,-4.45453 1.0596,-6.34995c0.10137,-0.21799 0.2061,-0.43219 0.31415,-0.64255c0.01901,-0.0388 0.0382,-0.07712 0.05759,-0.11495c0.37147,-0.72468 0.79035,-1.39923 1.24973,-2.02357c1.33448,-1.84355 2.99906,-3.28311 4.96304,-4.28585c1.94551,-0.99325 2.94544,-1.4569 6.02984,-1.50934c0.34158,-0.0132 0.68306,-0.01424 1.02362,-0.00311c2.55593,0.02739 3.51598,0.33811 4.93663,1.0809c2.77529,1.18751 5.15332,3.34785 6.55566,6.48695l0.62011,1.38808l0.62011,-1.38808c1.40234,-3.13909 3.78037,-5.29943 6.55565,-6.48694c1.42065,-0.74279 2.3807,-1.05351 4.93664,-1.0809c0.34055,-0.01114 0.68203,-0.0101 1.02361,0.00311c3.08441,0.05244 4.08434,0.51609 6.02985,1.50934c1.96395,1.00273 3.62851,2.44226 4.96298,4.28577c0.4594,0.62436 0.87831,1.29894 1.24979,2.02365c0.01939,0.03783 0.03859,0.07616 0.05761,0.11497c0.10805,0.21036 0.21278,0.42454 0.31414,0.64253c0.88142,1.89541 1.08822,3.13431 1.0596,6.34995c-0.00059,0.06632 -0.0014,0.13247 -0.00245,0.19845c0.04789,2.504 -0.24998,5.03883 -0.91908,6.89513c-1.85141,5.13632 -5.38625,9.0521 -13.58848,15.0526c-5.37915,3.9353 -11.452,9.88943 -11.87047,10.7257c-0.22718,0.45396 -0.63183,0.45396 -0.85901,0c-0.41847,-0.83627 -6.49132,-6.79041 -11.87047,-10.7257c-8.20222,-6.0005 -11.73706,-9.91628 -13.58848,-15.0526c-0.6691,-1.85631 -0.96697,-4.39114 -0.91908,-6.89515c-0.00104,-0.06597 -0.00185,-0.13211 -0.00245,-0.19843z"/></g></g></svg>