<svg version="1.1" xmlns="http://www.w3.org/2000/svg" xmlns:xlink="http://www.w3.org/1999/xlink" width="218.66667" height="159" viewBox="0,0,218.66667,159"><defs><linearGradient x1="320.00001" y1="101.5" x2="320.00001" y2="258.5" gradientUnits="userSpaceOnUse" id="color-1"><stop offset="0" stop-color="#ffde00"/><stop offset="1" stop-color="#1a0000"/></linearGradient></defs><g transform="translate(-210.66668,-100.5)"><g stroke-miterlimit="10"><path d="M211.66669,258.5v-157h216.66667v157z" fill="url(#color-1)" stroke="#000000" stroke-width="2"/><text transform="translate(230.12891,226.55883) scale(0.32342,0.32342)" font-size="40" xml:space="preserve" fill="#ffffff" stroke="none" stroke-width="1" font-family="Serif" font-weight="normal" text-anchor="start"><tspan x="0" dy="0">HOT SINGLES IN YOUR AREA!</tspan></text><text transform="translate(268.79558,246.68815) scale(0.5,0.5)" font-size="40" xml:space="preserve" fill="#ffffff" stroke="none" stroke-width="1" font-family="Serif" font-weight="normal" text-anchor="start"><tspan x="0" dy="0">CLICK NOW!</tspan></text><path d="M338.62891,204.18815l-0.37837,-0.09459l-0.38914,-0.02614l-5.16667,-1.66667l-0.26289,-0.16373l-0.2946,-0.09555l-4,-2.5l-0.03887,-0.04031l-0.05246,-0.01958l-2.66667,-1.83333l-0.12959,-0.1467l-0.17065,-0.09587l-3,-2.83333l-0.07816,-0.12221l-0.11756,-0.08498l-2.66667,-3.16667l-0.0887,-0.18135l-0.14275,-0.14275l-1.97687,-3.29479l-2.14217,-3.29565l-0.07055,-0.20504l-0.1312,-0.17264l-1.5,-3.5l-0.01388,-0.08607l-0.0479,-0.07285l-1.16667,-3.33333l-0.02083,-0.22656l-0.08893,-0.20941l-0.5,-3.16667l0.01013,-0.11434l-0.03519,-0.10927l-0.15846,-2.37695l-0.00303,-0.0182l-0.04908,-0.14725l-0.02104,-0.27346l-0.04404,-0.26426l-0.06321,-0.25285v-0.33333l0.03199,-0.12797l-0.00252,-0.0328l0.01488,-0.01663l0.05402,-0.2161l0.03839,-0.47987l0.04164,-0.03397l-0.00171,-0.02559l-0.65853,-5.43291l0.01901,-0.15211l-0.03718,-0.14872v-13.52011l-0.31621,-2.68778l0.00106,-0.00824l-0.00289,-0.00779l-0.1149,-1.03412l-0.00303,-0.01314l0.00022,-0.01216l-0.04895,-0.44057l0.00423,-0.03132l-0.01952,-0.07809v-0.83333l0.3125,-1.25l0.52083,-0.29762v-5.28571l0.06039,-0.24157l-0.01184,-0.24872l0.28479,-1.42393l0,-0.91912l0.04364,-0.17457l-0.01852,-0.17899l0.13806,-0.96644l-0.01001,-0.02002l0.02145,-0.06005l0.01717,-0.12016l0.2087,-0.51227l0.18605,-0.52093l0.059,-0.0885l0.02113,-0.10563l0,-0.41912l0.09747,-0.38988l0.03082,-0.40069l0.11508,-0.34525l-0.00739,-0.02709l0.03694,-0.06157l0.02203,-0.06609l0.3084,-0.48463l0.25216,-0.42027l-0.0112,-0.0283l0.03122,-0.06812l0.00635,-0.03174l0.25302,-0.53415l0.24626,-0.5373l0.02022,-0.02528l0.03208,-0.06772l0.03013,-0.01004l0.41879,-0.52348l0.21489,-0.42978l0.26154,-0.30513l0.20676,-0.34461l1,-1l0.42292,-0.25375l0.09485,-0.16598l0.31164,-0.07791l0.27545,-0.16527l0.18443,0.0503l0.47848,-0.11962h1.66667l0.47848,0.11962l0.18443,-0.0503l0.27545,0.16527l0.31164,0.07791l0.09485,0.16598l0.42292,0.25375l1.66667,1.66667l0.12811,0.21352l0.18425,0.1675l1.57912,2.36869l0.92368,1.06579l0.88311,-2.35497l1.31117,-4.2613l0.13097,-0.21679l0.06373,-0.24513l1.88515,-3.4561l1.0856,-3.4119l0.82557,-2.80695l0.08496,-0.14467l0.02892,-0.16526l0.5375,-1.20937l0.11438,-0.68628l0.51375,-1.18162l0.32858,-0.12143l0.12365,-0.28595l0.98237,-0.1228l0.92863,-0.34319l0.2414,0.19693l0.3476,-0.04345l1,0.8125l0.5,0.66667l0.16489,0.3916l0.22131,0.36271l0.83333,2.66667l0.00429,0.07397l0.03487,0.06538l0.8142,3.25682l1.11232,3.49585l1.45059,3.54588l0.53705,1.22754l0.00596,-0.0149l0.06211,-0.086l0.02301,-0.10356l0.83333,-1.66667l0.14789,-0.17253l0.08818,-0.20943l0.36475,-0.48633l0.06585,-0.13171l0.83853,-0.97828l0.2432,-0.01351l0.11984,-0.16609l1.07479,0.09972l1.07775,-0.05987l0.11361,0.17041l0.24253,0.0225l0.80174,1.00864l0.83333,1.83333l0.0215,0.11706l0.06505,0.09967l1.5,4.33333l0.00992,0.11212l0.05297,0.09932l0.9847,3.93879l0.2872,0.94364l0.23608,-0.80943l0.01572,-0.02691l0.00196,-0.0311l1.1526,-3.62246l0.79042,-2.84552l0.31295,-1.72123l0.1465,-0.32384l0.07711,-0.34698l0.16667,-0.33333l0.1355,-0.15808l0.00529,-0.0117l0.00679,-0.0024l0.27937,-0.32593l0.04135,-0.15163l0.11565,-0.03154l0.25458,-0.29701l1.04791,-0.05822l1.01254,-0.27615l0.33543,0.20126l0.11969,-0.00665l0.08718,0.13077l0.56255,0.33753l0.71799,0.71799l0.02754,0.00551l0.03855,0.06058l0.04926,0.04926l0.29554,0.49257l0.3084,0.48463l0.02203,0.06609l0.03694,0.06157l-0.00739,0.02709l0.5822,1.7466l1.45904,3.40442l0.03223,0.19985l0.09526,0.17861l1.15257,4.61029l1.42004,4.73347l0.00019,0.00418l0.00213,0.0036l1.39659,4.71087l0.00106,0.02445l0.01204,0.02131l1.32226,4.79317l1.42847,4.7626l0.00261,0.05624l0.02662,0.04961l1.05941,4.1932l1.13659,4.05926l1.14037,3.25819l0.01618,0.17592l0.07563,0.15966l0.66667,3.33333l-0.0042,0.08817l0.03219,0.08219l0.63786,4.94343l0.32613,2.30111l0.42827,1.28482l0.01212,0.15751l0.06763,0.14277l0.33333,1.66667l-0.00197,0.04134l0.0165,0.03795l0.12224,0.73343l0.23297,0.58242l0.04753,0.34859l0.11887,0.33113l0.11371,1.13713l0.40263,0.70461l0.13289,0.47251l0.17719,0.45775l0.15534,1.2427l0.13709,0.68543l0.15224,0.60895l0,0.30776l0.07464,0.29857v3.83333l-0.03414,0.13657l0.01885,0.13951l-0.16667,1.5l-0.10422,0.28058l-0.03101,0.2977l-0.66667,1.83333l-0.18387,0.27239l-0.11754,0.3069l-1.11625,1.59464l-0.95477,1.59128l-0.15942,0.15942l-0.10288,0.20061l-1.15827,1.32373l-0.9917,1.15698l-0.22453,0.15934l-0.17362,0.21368l-0.66667,0.5l-0.30406,0.12803l-0.26746,0.19316l-0.83333,0.33333l-0.46914,0.06397l-0.45934,0.11484h-0.58578l-1.42393,0.28479l-0.09319,-0.00444l-0.08701,0.03368l-1.33333,0.16667l-0.15683,-0.01901l-0.15326,0.03831h-10.66667l-0.22707,-0.05677l-0.23365,0.01395l-2.66667,-0.5l-0.01409,-0.00647l-0.01548,0.00074l-2.5,-0.5l-0.11636,-0.05512l-0.12857,-0.00689l-1.97919,-0.60898l-0.77226,-0.11032l-0.02002,0.01001l-0.06005,-0.02145l-0.12016,-0.01717l-0.51227,-0.2087l-0.27861,-0.0995z" fill-opacity="0.72549" fill="#870000" stroke="none" stroke-width="0.5"/><path d="M339.75753,203.29568l-0.27228,-0.06807l-0.28003,-0.01881l-3.71795,-1.19934l-0.18918,-0.11782l-0.212,-0.06875l-2.87841,-1.79901l-0.02797,-0.029l-0.03775,-0.01409l-1.91894,-1.31927l-0.09325,-0.10557l-0.1228,-0.06899l-2.15881,-2.03888l-0.05624,-0.08794l-0.0846,-0.06116l-1.91894,-2.27874l-0.06383,-0.1305l-0.10272,-0.10272l-1.42257,-2.37094l-1.54151,-2.37156l-0.05077,-0.14754l-0.09441,-0.12423l-1.0794,-2.51861l-0.00999,-0.06194l-0.03447,-0.05242l-0.83954,-2.39868l-0.01499,-0.16303l-0.06399,-0.1507l-0.3598,-2.27874l0.00729,-0.08228l-0.02532,-0.07863l-0.11403,-1.71046l-0.00218,-0.0131l-0.03532,-0.10596l-0.01514,-0.19678l-0.03169,-0.19016l-0.04549,-0.18196v-0.23987l0.02302,-0.09209l-0.00182,-0.0236l0.01071,-0.01197l0.03888,-0.1555l0.02763,-0.34532l0.02996,-0.02444l-0.00123,-0.01842l-0.47388,-3.90953l0.01368,-0.10946l-0.02675,-0.10702v-9.72911l-0.22755,-1.93414l0.00076,-0.00593l-0.00208,-0.0056l-0.08269,-0.74416l-0.00218,-0.00946l0.00016,-0.00875l-0.03523,-0.31704l0.00305,-0.02254l-0.01405,-0.05619v-0.59967l0.22488,-0.8995l0.37479,-0.21417v-3.80362l0.04346,-0.17383l-0.00852,-0.17898l0.20493,-1.02466v-0.6614l0.0314,-0.12562l-0.01332,-0.1288l0.09935,-0.69545l-0.0072,-0.0144l0.01543,-0.04321l0.01235,-0.08647l0.15018,-0.36863l0.13388,-0.37486l0.04246,-0.06368l0.0152,-0.07602v-0.3016l0.07014,-0.28056l0.02218,-0.28834l0.08282,-0.24845l-0.00532,-0.01949l0.02659,-0.04431l0.01585,-0.04755l0.22192,-0.34874l0.18146,-0.30242l-0.00806,-0.02037l0.02247,-0.04902l0.00457,-0.02284l0.18207,-0.38438l0.17721,-0.38664l0.01455,-0.01819l0.02308,-0.04873l0.02168,-0.00723l0.30136,-0.3767l0.15464,-0.30927l0.1882,-0.21957l0.14879,-0.24798l0.7196,-0.7196l0.30433,-0.1826l0.06825,-0.11944l0.22425,-0.05606l0.19821,-0.11893l0.13272,0.0362l0.34432,-0.08608h1.19934l0.34432,0.08608l0.13272,-0.0362l0.19822,0.11893l0.22425,0.05606l0.06825,0.11944l0.30433,0.1826l1.19934,1.19934l0.09219,0.15365l0.13258,0.12053l1.13634,1.70451l0.66469,0.76695l0.63549,-1.69464l0.94352,-3.06644l0.09425,-0.156l0.04586,-0.1764l1.35656,-2.48702l0.7812,-2.45521l0.59409,-2.01989l0.06114,-0.1041l0.02081,-0.11892l0.38678,-0.87027l0.08231,-0.49385l0.3697,-0.8503l0.23645,-0.08738l0.08898,-0.20577l0.70692,-0.08836l0.66824,-0.24696l0.17371,0.14172l0.25013,-0.03127l0.7196,0.58468l0.3598,0.47973l0.11865,0.2818l0.15926,0.26101l0.59967,1.91894l0.00309,0.05323l0.02509,0.04705l0.5859,2.34362l0.80043,2.51562l1.04385,2.55163l0.38646,0.88335l0.00429,-0.01072l0.04469,-0.06189l0.01656,-0.07452l0.59967,-1.19934l0.10642,-0.12415l0.06346,-0.15071l0.26247,-0.34996l0.04739,-0.09478l0.60341,-0.70397l0.175,-0.00972l0.08624,-0.11952l0.77342,0.07176l0.77555,-0.04309l0.08175,0.12263l0.17453,0.01619l0.57693,0.72582l0.59967,1.31927l0.01547,0.08424l0.04681,0.07173l1.0794,3.11828l0.00714,0.08068l0.03812,0.07147l0.70859,2.83437l0.20667,0.67905l0.16989,-0.58247l0.01131,-0.01936l0.00141,-0.02238l0.82941,-2.60674l0.56879,-2.04764l0.2252,-1.2386l0.10542,-0.23304l0.05549,-0.24968l0.11993,-0.23987l0.09751,-0.11376l0.00381,-0.00842l0.00488,-0.00172l0.20104,-0.23454l0.02976,-0.10911l0.08322,-0.0227l0.18319,-0.21373l0.75408,-0.04189l0.72863,-0.19872l0.24138,0.14483l0.08613,-0.00478l0.06273,0.0941l0.40482,0.24289l0.51667,0.51667l0.01981,0.00396l0.02774,0.04359l0.03545,0.03544l0.21267,0.35446l0.22193,0.34874l0.01585,0.04755l0.02658,0.04431l-0.00532,0.0195l0.41896,1.25686l1.04993,2.44983l0.0232,0.14381l0.06855,0.12853l0.8294,3.31758l1.02187,3.40622l0.00014,0.00301l0.00153,0.00259l1.00499,3.38996l0.00076,0.01759l0.00866,0.01534l0.9515,3.44918l1.02793,3.42718l0.00188,0.04047l0.01915,0.0357l0.76236,3.01744l0.8179,2.92106l0.82061,2.34461l0.01164,0.1266l0.05442,0.11489l0.47974,2.39867l-0.00302,0.06345l0.02316,0.05914l0.45901,3.55731l0.23468,1.65588l0.30819,0.92456l0.00872,0.11334l0.04867,0.10273l0.23987,1.19934l-0.00141,0.02975l0.01187,0.02731l0.08796,0.52778l0.16764,0.41911l0.03421,0.25085l0.08554,0.23828l0.08183,0.81829l0.28974,0.50704l0.09563,0.34002l0.12751,0.3294l0.11178,0.89425l0.09865,0.49324l0.10955,0.43821v0.22147l0.05371,0.21486v2.75848l-0.02457,0.09828l0.01356,0.10039l-0.11993,1.0794l-0.07499,0.20191l-0.02231,0.21423l-0.47973,1.31927l-0.13231,0.19601l-0.08458,0.22085l-0.80326,1.14751l-0.68705,1.14509l-0.11472,0.11472l-0.07403,0.14436l-0.83349,0.95256l-0.71363,0.83257l-0.16157,0.11467l-0.12493,0.15376l-0.47973,0.3598l-0.21881,0.09213l-0.19247,0.139l-0.59967,0.23987l-0.33759,0.04603l-0.33054,0.08264h-0.42153l-1.02466,0.20493l-0.06706,-0.00319l-0.06261,0.02424l-0.95947,0.11993l-0.11286,-0.01368l-0.11028,0.02757h-7.67577l-0.1634,-0.04085l-0.16813,0.01004l-1.91894,-0.3598l-0.01014,-0.00466l-0.01114,0.00053l-1.79901,-0.3598l-0.08373,-0.03966l-0.09252,-0.00495l-1.42423,-0.43822l-0.55572,-0.07939l-0.01441,0.0072l-0.04321,-0.01543l-0.08647,-0.01235l-0.36863,-0.15018l-0.20049,-0.0716z" fill-opacity="0.72549" fill="#cf8200" stroke="none" stroke-width="0.5"/><path d="M372.29558,198.02148c0,4.95208 -14.87787,3.78796 -22.41109,2.96931c-0.12453,0.77349 -0.33033,1.27981 -0.63754,1.43342c-1.38908,0.69454 -2.42017,-0.18433 -3.19278,-1.87204c-0.19356,-0.02008 -0.32591,-0.03104 -0.38955,-0.0307c-6.26715,0.03381 -12.64391,0.93982 -18.85316,1.64247c-0.06391,0.00893 -0.1286,0.01545 -0.19397,0.01945c-0.05134,0.00315 -0.10311,0.00474 -0.15524,0.00474c-1.38071,0 -2.5,-1.11929 -2.5,-2.5c0,-1.38071 1.11929,-2.5 2.5,-2.5c0.11085,0 0.22002,0.00722 0.32706,0.0212c4.74306,-2.20781 13.49474,-1.77174 17.88547,-1.69727c-0.81433,-4.6915 -0.98187,-10.14979 -1.17377,-11.21782c-2.55757,-14.23397 -1.04929,-29.18954 -1.53876,-43.55185c-0.03494,-1.02523 -1.32314,1.56935 -2.02689,2.3157c-1.54306,1.6365 -2.06913,2.01393 -3.94883,3.44492c-2.70407,2.05857 -17.68528,12.07002 -19.62645,8.67298c-0.73685,-0.43488 -1.23117,-1.23698 -1.23117,-2.15454c0,-1.38071 1.11929,-2.5 2.5,-2.5c0.05174,0 0.10312,0.00157 0.15408,0.00467c3.52042,-2.01113 8.90903,-2.49521 12.0495,-5.26752c2.82516,-2.49397 12.68887,-17.58857 16.14305,-15.61475c8.14707,4.65547 0.88732,18.75002 0.98671,28.13289c0.05946,5.61412 0.21291,11.35524 0.49709,16.95437c0.06786,1.33706 1.93022,12.54891 2.44705,20.30322c7.55332,-0.82241 22.38919,-1.95027 22.38919,2.98712z" fill="#000000" stroke="none" stroke-width="0.5"/></g></g></svg>