<svg version="1.1" xmlns="http://www.w3.org/2000/svg" xmlns:xlink="http://www.w3.org/1999/xlink" width="53.41723" height="37.02514" viewBox="0,0,53.41723,37.02514"><g transform="translate(-293.2987,-156.26315)"><g fill="#ffffff" stroke="none" stroke-width="0" stroke-miterlimit="10"><path d="M312.82422,157.01388c2.77529,1.18751 5.15332,3.34785 6.55566,6.48695l0.62011,1.38808l0.62011,-1.38808c0.26233,-0.58722 0.55881,-1.14019 0.88564,-1.65894c-0.09967,0.71381 -0.07705,1.46723 0.12052,2.27923c1.36851,1.50726 4.16481,2.08606 6.07815,2.62943c0.07286,0.02069 0.15642,0.04412 0.2483,0.06974c0.04131,0.10906 0.16259,0.14833 0.16259,0.14833l0.29263,0.09471c0.04991,0.01425 0.09987,0.02968 0.14985,0.04606c-0.00005,0.00199 -0.00007,0.004 -0.00007,0.006c0,0.06904 0.02798,0.13154 0.07322,0.17678l0.23077,0.23077l0.01234,-0.01234l0.02681,0.04427c0.3107,0.12826 0.61619,0.25352 0.91877,0.39196c-3.33608,0.90265 -6.73867,2.22342 -1.29632,3.35357c1.38291,0.31918 9.14246,1.36934 9.11801,2.9114c-0.95505,1.81037 7.29354,-0.00987 8.65015,-0.28918c0.14105,-0.02904 0.28256,-0.05875 0.42446,-0.08895c-0.13376,1.52446 -0.40749,2.95702 -0.82748,4.12222c-1.85141,5.13632 -5.38625,9.0521 -13.58848,15.0526c-0.12601,0.09219 -0.25241,0.18548 -0.3791,0.2798c-1.1664,-0.68364 -2.32247,-1.39487 -3.51613,-2.09971c-2.27519,-1.34335 -6.51832,0.91755 -9.42949,0.07843c-1.50119,-0.75596 0.79201,-2.86665 -0.74642,-3.75902c-0.89601,-0.51973 -4.12112,0.22689 -5.34473,-0.00617c-3.22422,-0.60535 -5.99263,-3.2504 -6.67557,-6.42512c-0.23483,-2.38434 -7.42169,-0.04695 -9.32063,0.35586c-0.3263,0.06922 -0.66553,0.14145 -1.01352,0.21809c-0.7256,-1.18946 -1.29742,-2.40354 -1.76284,-3.69475c-0.40521,-1.12419 -0.67427,-2.49724 -0.81284,-3.96159c2.04911,-0.4058 4.0909,-0.91036 6.07819,-1.42705c2.54738,-0.66232 5.11177,-1.17587 7.6817,-1.74032l0.28757,0c0.13807,0 0.25,-0.11193 0.25,-0.25c0,-0.12548 -0.09245,-0.22937 -0.21295,-0.24727l-0.45748,-0.07625l-0.01509,0.09054c-2.36996,-0.65603 -7.19552,-0.45683 -5.25706,-2.4159c2.85177,-1.696 6.02157,-2.63422 9.1651,-3.65554c3.11741,-1.33416 7.57491,-3.80415 2.78928,-6.62833c-0.84158,-0.49481 -1.72963,-0.92263 -2.5977,-1.38102c0.63521,0.17267 1.17852,0.41847 1.81399,0.75073z"/><path d="M330.47593,167.74103c0.03631,0.00283 0.07252,0.00457 0.10863,0.00511c-0.02982,0.0076 -0.0597,0.01525 -0.08963,0.02293c-0.00584,-0.01005 -0.01226,-0.01939 -0.019,-0.02804z"/></g></g></svg>