<svg version="1.1" xmlns="http://www.w3.org/2000/svg" xmlns:xlink="http://www.w3.org/1999/xlink" width="417.16667" height="233.83333" viewBox="0,0,417.16667,233.83333"><defs><linearGradient x1="320.00001" y1="64.33333" x2="320.00001" y2="295.66667" gradientUnits="userSpaceOnUse" id="color-1"><stop offset="0" stop-color="#ffffff"/><stop offset="1" stop-color="#efefef"/></linearGradient><linearGradient x1="320.00001" y1="64.33334" x2="320.00001" y2="80" gradientUnits="userSpaceOnUse" id="color-2"><stop offset="0" stop-color="#ffffff"/><stop offset="1" stop-color="#cccccc"/></linearGradient></defs><g transform="translate(-111.41668,-63.08334)"><g stroke-miterlimit="10"><path d="M112.66669,295.66667v-231.33333h414.66667v231.33333z" fill="url(#color-1)" stroke="#000000" stroke-width="2.5" stroke-linecap="butt"/><path d="M112.66669,80v-15.66666h414.66667v15.66666z" fill="url(#color-2)" stroke="#000000" stroke-width="2.5" stroke-linecap="butt"/><text transform="translate(336.83335,153.16667) scale(0.5,0.5)" font-size="40" xml:space="preserve" fill="#000000" stroke="none" stroke-width="1" stroke-linecap="butt" font-family="&quot;ヒラギノ角ゴ Pro W3&quot;, &quot;Hiragino Kaku Gothic Pro&quot;, Osaka, &quot;メイリオ&quot;, Meiryo, &quot;ＭＳ Ｐゴシック&quot;, &quot;MS PGothic&quot;" font-weight="normal" text-anchor="start"><tspan x="0" dy="0">the game where you</tspan><tspan x="0" dy="46.150000000000006px">put enemies in a box</tspan><tspan x="0" dy="46.150000000000006px">instead of outside a</tspan><tspan x="0" dy="46.150000000000006px">box</tspan></text><text transform="translate(131.83333,273.16667) scale(0.5,0.5)" font-size="40" xml:space="preserve" fill="#000000" stroke="none" stroke-width="1" stroke-linecap="butt" font-family="&quot;ヒラギノ角ゴ Pro W3&quot;, &quot;Hiragino Kaku Gothic Pro&quot;, Osaka, &quot;メイリオ&quot;, Meiryo, &quot;ＭＳ Ｐゴシック&quot;, &quot;MS PGothic&quot;" font-weight="normal" text-anchor="start"><tspan x="0" dy="0">WINDOWS XP SIMULATOR</tspan></text><text transform="translate(119.83335,76.15312) scale(0.24115,0.24115)" font-size="40" xml:space="preserve" fill="#000000" stroke="none" stroke-width="1" stroke-linecap="butt" font-family="&quot;ヒラギノ角ゴ Pro W3&quot;, &quot;Hiragino Kaku Gothic Pro&quot;, Osaka, &quot;メイリオ&quot;, Meiryo, &quot;ＭＳ Ｐゴシック&quot;, &quot;MS PGothic&quot;" font-weight="normal" text-anchor="start"><tspan x="0" dy="0">OH NO</tspan></text><path d="M272.52139,133.93338l-29.65209,-20.12106l-63.54018,6.35402l-65.30519,-54.71516" fill="none" stroke="#000000" stroke-width="0.5" stroke-linecap="round"/><path d="M326.88353,176.9995l-8.11901,29.29909l33.1821,-7.41302l85.42624,46.59613l-53.65616,13.76703l-34.9471,-10.94303" fill="none" stroke="#000000" stroke-width="0.5" stroke-linecap="round"/><path d="M527.38811,65.80418l-110.13632,85.42624l-57.18616,-13.41404" fill="none" stroke="#000000" stroke-width="0.5" stroke-linecap="round"/><path d="M229.10226,294.19584l33.8881,-47.65514l-7.76602,-83.66124l7.41302,-0.706l64.95218,-4.58902l-11.29603,-33.5351" fill="none" stroke="#000000" stroke-width="0.5" stroke-linecap="round"/><path d="M272.16837,130.05037l-35.3001,18.00305l-18.70905,36.0061" fill="none" stroke="#000000" stroke-width="0.5" stroke-linecap="round"/><path d="M421.8408,220.41862l62.83418,75.18922" fill="none" stroke="#000000" stroke-width="0.5" stroke-linecap="round"/><path d="M484.67498,293.13683l-1.76501,-75.89522l16.23805,-17.65005" fill="none" stroke="#000000" stroke-width="0.5" stroke-linecap="round"/><path d="M445.84487,127.22636l26.12207,10.23703l24.00407,-15.53204" fill="none" stroke="#000000" stroke-width="0.5" stroke-linecap="round"/><path d="M465.25993,135.34538l-4.58901,18.00305" fill="none" stroke="#000000" stroke-width="0.5" stroke-linecap="round"/><path d="M426.42982,140.6404l-18.70905,-34.9471l-19.06205,-3.53001" fill="none" stroke="#000000" stroke-width="0.5" stroke-linecap="round"/><path d="M277.81639,160.40845l18.35605,29.65209l-34.5941,35.3001" fill="none" stroke="#000000" stroke-width="0.5" stroke-linecap="round"/><path d="M256.63633,181.94151l-20.47406,41.30112l-37.77111,-2.11801" fill="none" stroke="#000000" stroke-width="0.5" stroke-linecap="round"/><path d="M168.03307,111.34131l-11.29603,21.53306l10.94303,36.0061" fill="none" stroke="#000000" stroke-width="0.5" stroke-linecap="round"/></g></g></svg>