<svg version="1.1" xmlns="http://www.w3.org/2000/svg" xmlns:xlink="http://www.w3.org/1999/xlink" width="141.77064" height="72.40971" viewBox="0,0,141.77064,72.40971"><defs><linearGradient x1="320.00003" y1="64.33334" x2="320.00003" y2="295.66668" gradientUnits="userSpaceOnUse" id="color-1"><stop offset="0" stop-color="#ffffff"/><stop offset="1" stop-color="#efefef"/></linearGradient><linearGradient x1="320.00003" y1="64.33334" x2="320.00003" y2="80.00002" gradientUnits="userSpaceOnUse" id="color-2"><stop offset="0" stop-color="#ffffff"/><stop offset="1" stop-color="#cccccc"/></linearGradient></defs><g transform="translate(-386.81273,-63.08334)"><g stroke="#000000" stroke-width="2.5" stroke-miterlimit="10"><path d="M527.33336,64.33334v67.77876c-2.07525,-2.4229 -4.344,-4.70275 -6.5108,-7.03977c-2.38721,-2.57474 -4.94204,-4.95997 -7.48627,-7.37885c-2.53364,-2.40882 -5.31808,-4.55925 -7.80062,-7.01645c-2.81642,-2.78766 -5.24282,-4.05557 -9.23606,-4.47607c-3.48061,-0.36652 -6.96061,-0.73852 -10.44055,-1.11143c-3.48,-0.37292 -6.95967,-0.74892 -10.43934,-1.12492c-3.48086,-0.37613 -6.96181,-0.74239 -10.44621,-1.08432c-3.46748,-0.34027 -6.98727,-0.89162 -10.46928,-0.99198c-3.49858,-0.09981 -6.99715,-0.19961 -10.49573,-0.29942c-3.4983,-0.0998 -7.00696,-0.02864 -10.50672,-0.02866c-3.49935,-0.00001 -6.9984,0.00389 -10.49762,-0.02774c-3.41303,-0.03085 -7.03523,-0.22501 -10.07866,-1.88582c-3.0197,-1.64785 -5.91654,-3.68473 -8.27386,-6.23518c-2.37518,-2.56554 -4.86474,-4.99764 -6.76834,-7.93443c-1.91775,-2.95861 -3.77929,-5.81966 -5.28913,-9.00826c-1.53201,-3.23545 -2.72285,-6.29817 -3.69099,-9.74526c-0.22729,-0.80928 -0.41431,-1.6031 -0.56965,-2.3902z" fill="url(#color-1)"/><path d="M527.33336,64.33334v15.66666h-132.87329c-0.66224,-1.14511 -1.28968,-2.3143 -1.86589,-3.5312c-1.53201,-3.23545 -2.72285,-6.29817 -3.69099,-9.74526c-0.22729,-0.80928 -0.41431,-1.6031 -0.56965,-2.3902z" fill="url(#color-2)"/></g></g></svg>