<svg version="1.1" xmlns="http://www.w3.org/2000/svg" xmlns:xlink="http://www.w3.org/1999/xlink" width="145.26953" height="76.3434" viewBox="0,0,145.26953,76.3434"><g transform="translate(-247.62003,-116.17535)"><g fill="#ffffff" stroke-miterlimit="10"><text transform="translate(248.12003,185.76875) scale(0.5,0.5)" font-size="40" xml:space="preserve" fill="#ffffff" stroke="#000000" stroke-width="2" font-family="&quot;Google Archivo Black&quot;, Archivo Black" font-weight="normal" text-anchor="start"><tspan x="0" dy="0">thats your hp</tspan></text><path d="M342.62891,153.3974c-0.79286,-7.69119 -13.12425,-17.54966 -17.3104,-24.08968c-0.90752,-1.41782 -1.98355,-3.51768 0.35903,-4.68897c3.26092,-1.63046 7.5783,7.54106 8.95759,9.40857c6.14595,8.32136 14.13376,13.6837 12.81974,25.01924c-0.57315,4.94436 -17.03691,11.39744 -18.42814,8.9628c-0.73685,-0.43488 -1.23117,-1.23698 -1.23117,-2.15454c0,-1.38071 1.11929,-2.5 2.5,-2.5c0.05626,0 0.11209,0.00186 0.16742,0.00552c4.95981,-2.62489 13.09696,-0.93127 12.16591,-9.96293z" stroke="none" stroke-width="0.5"/><path d="M316.62919,122.24189c-1.48097,0.21341 0.96132,2.84064 1.59768,4.19485c1.36111,2.89653 8.66484,13.50376 3.37513,15.26699c-3.18601,1.062 -10.80932,-20.29126 -10.61463,-22.36913c0.03513,-0.37495 0.17538,-2.1212 0.6528,-2.35991c4.37743,-2.18872 14.68139,0.59058 19.17756,2.66979c0.51626,0.23874 1.77384,0.80045 1.72873,1.45446c0.15961,0.32923 0.24912,0.69877 0.24912,1.08921c0,1.38071 -1.11929,2.5 -2.5,2.5c-0.64536,0 -1.23361,-0.24454 -1.67714,-0.646c-3.58862,0.11155 -7.59364,-2.43369 -11.98925,-1.80026z" stroke="none" stroke-width="0.5"/></g></g></svg>