<svg version="1.1" xmlns="http://www.w3.org/2000/svg" xmlns:xlink="http://www.w3.org/1999/xlink" width="53.52844" height="48.14932" viewBox="0,0,53.52844,48.14932"><g transform="translate(-293.18748,-155.92534)"><g fill="#ffffff" stroke="none" stroke-width="0" stroke-miterlimit="10"><path d="M293.19002,170.8623c-0.02863,-3.21563 0.17817,-4.45453 1.0596,-6.34995c0.10137,-0.21799 0.2061,-0.43219 0.31415,-0.64255c0.01901,-0.0388 0.0382,-0.07712 0.05759,-0.11495c0.37147,-0.72468 0.79035,-1.39923 1.24973,-2.02357c1.33448,-1.84355 2.99906,-3.28311 4.96304,-4.28585c1.94551,-0.99325 2.94544,-1.4569 6.02984,-1.50934c0.34158,-0.0132 0.68306,-0.01424 1.02362,-0.00311c2.55593,0.02739 3.51598,0.33811 4.93663,1.0809c2.77529,1.18751 5.15332,3.34785 6.55566,6.48695l0.62011,1.38808l0.62011,-1.38808c0.26233,-0.58722 0.55881,-1.14019 0.88564,-1.65894c-0.09967,0.71381 -0.07705,1.46723 0.12052,2.27923c1.36851,1.50726 4.16481,2.08606 6.07815,2.62943c0.07286,0.02069 0.15642,0.04412 0.2483,0.06974c0.04131,0.10906 0.16259,0.14833 0.16259,0.14833l0.29263,0.09471c0.04991,0.01425 0.09987,0.02968 0.14985,0.04606c-0.00005,0.00199 -0.00007,0.004 -0.00007,0.006c0,0.06904 0.02798,0.13154 0.07322,0.17678l0.23077,0.23077l0.01234,-0.01234l0.02681,0.04427c0.3107,0.12826 0.61619,0.25352 0.91877,0.39196c-3.33608,0.90265 -6.73867,2.22342 -1.29632,3.35357c1.38291,0.31918 9.14246,1.36934 9.11801,2.9114c-0.95505,1.81037 7.29354,-0.00987 8.65015,-0.28918c0.14105,-0.02904 0.28256,-0.05875 0.42446,-0.08895c-0.13376,1.52446 -0.40749,2.95702 -0.82748,4.12222c-1.85141,5.13632 -5.38625,9.0521 -13.58848,15.0526c-5.37915,3.9353 -11.452,9.88943 -11.87047,10.7257c-0.22718,0.45396 -0.63183,0.45396 -0.85901,0c-0.41847,-0.83627 -6.49132,-6.79041 -11.87047,-10.7257c-8.20222,-6.0005 -11.73706,-9.91628 -13.58848,-15.0526c-0.6691,-1.85631 -0.96697,-4.39114 -0.91908,-6.89515c-0.00104,-0.06597 -0.00185,-0.13211 -0.00245,-0.19843z"/><path d="M330.47593,167.74103c0.03631,0.00283 0.07252,0.00457 0.10863,0.00511c-0.02982,0.0076 -0.0597,0.01525 -0.08963,0.02293c-0.00584,-0.01005 -0.01226,-0.01939 -0.019,-0.02804z"/></g></g></svg>