<svg version="1.1" xmlns="http://www.w3.org/2000/svg" xmlns:xlink="http://www.w3.org/1999/xlink" width="23.02285" height="50.46402" viewBox="0,0,23.02285,50.46402"><g transform="translate(-308.55238,-150.54878)"><g fill="#ffffff" stroke="none" stroke-miterlimit="10"><path d="M327.5257,182.63164c0.10555,0.81509 0.72583,3.72021 0.94688,6.12114c-0.46543,-0.22398 -0.71901,0.09928 -0.53496,1.36401c0.08857,0.60727 0.20078,1.21331 0.3268,1.81796c-0.07867,0.12805 -0.17565,0.21644 -0.29344,0.25807c-1.2932,-0.16885 0.09623,2.65183 1.46465,5.02477c0.11006,0.67821 0.20672,1.36212 0.18236,1.38225l-0.2364,-0.22092c-0.06702,-0.06531 -0.16813,-0.09014 -0.26169,-0.0554c-0.11857,0.04404 -0.18387,0.16848 -0.15705,0.28856l0.10001,0.48593l0.05564,-0.01145c0.07325,0.64652 0.24922,1.28499 0.43707,1.91903c-0.01382,0.00242 -0.02763,0.00482 -0.04142,0.00721c-0.58813,-1.079 -1.48543,-2.25678 -2.05175,-3.0482l-0.21649,-0.30206c-0.06326,-0.09259 -0.18354,-0.13394 -0.2934,-0.09314c-0.09672,0.03592 -0.158,0.12535 -0.16274,0.22227l-0.03419,0.48057c-0.13971,0.45 -0.26163,0.8201 -0.37341,1.1138c-0.16992,0.02511 -0.33972,0.05229 -0.50983,0.08185c-0.59295,-0.1534 -1.03632,-0.57033 -1.43104,-1.09866c-0.24907,-0.47402 -0.53968,-1.03194 -0.88497,-1.66775c-0.56542,-1.04116 -1.12153,-2.08704 -1.6773,-3.13338c0.7666,-0.11515 1.56228,-0.4109 2.34939,-0.90231c2.84996,-2.70435 1.46094,-6.13004 0.14185,-9.2138c-1.2345,-2.88462 -4.48384,-7.47358 -6.24305,-2.29142c-0.37999,2.01869 -1.10203,4.69745 -0.84306,6.96782c-0.10497,0.31096 -0.18072,0.64418 -0.22706,0.98629c-0.01806,-0.11937 -0.03332,-0.24113 -0.04568,-0.36524c-0.02565,-0.23506 -0.0519,-0.47007 -0.08114,-0.70471l0.05762,-0.22753c0,0 0.05758,-0.24328 -0.18571,-0.30086c-0.24328,-0.05758 -0.30086,0.18571 -0.30086,0.18571l0,-0.00001l-0.07013,0.31226c0.02648,0.26282 0.05436,0.5255 0.08303,0.78809c0.08661,0.80423 0.28524,1.51923 0.57395,2.13623c0.04915,0.27982 0.11946,0.54913 0.21106,0.79993c0,0 0.08704,0.23436 0.3214,0.14732c0.00987,-0.00367 0.01919,-0.0076 0.02795,-0.01176c0.88403,1.1698 2.18539,1.7886 3.63235,1.74763l0.06772,0.18234l0.05716,-0.02123c0.05921,0.29054 0.13933,0.58221 0.23356,0.87375c-0.67906,-0.43129 -1.44453,-0.49828 -2.0292,0.03722c-1.56092,0.49568 -1.06842,3.09616 -2.32435,2.08209c0,0 -0.00605,-0.00484 -0.01688,-0.01176c-0.1793,-0.244 -0.33349,-0.46632 -0.42959,-0.5925c-1.44339,-1.89495 -3.02618,-2.04193 -4.58771,-3.52878c-1.12243,-2.48988 0.20037,-5.46082 0.16793,-8.19181c-0.04252,-3.39534 -0.73528,-6.86903 -1.12769,-10.24063c-0.32805,-2.81861 -0.83771,-5.63868 -1.66597,-8.3619c0.30188,-0.26884 0.62442,-0.51412 0.96599,-0.73185c1.53855,-0.75039 -0.41798,-3.98841 -2.03954,-6.3744c0.09396,-1.50112 0.28347,-3.00173 0.35494,-4.39204c0.01049,-0.204 0.04245,-0.71794 0.09772,-1.40148c0.09924,-0.08697 0.19947,-0.1732 0.30072,-0.25875c0.91278,-0.77126 2.10625,-1.50153 3.43073,-2.14126c1.09383,1.77962 2.27769,3.518 3.45395,5.20106c1.50778,2.15741 2.88202,4.38256 4.3059,6.59518l0.10012,0.26958c0.04807,0.12943 0.19197,0.19539 0.3214,0.14732c0.11763,-0.04369 0.18283,-0.16652 0.15766,-0.28572l-0.0878,-0.4554l-0.09013,0.01738c-0.21014,-2.45009 -2.07695,-6.90438 0.43445,-5.76927c2.58276,2.08287 4.56589,4.7277 6.61776,7.31897c0.07811,0.08218 0.15792,0.16532 0.23929,0.24906c-0.06588,-0.05005 -0.15519,-0.06635 -0.23849,-0.03541c-0.12309,0.04572 -0.18877,0.1781 -0.15357,0.30228l0.13027,0.48009l0.03626,-0.00984c0.16193,2.88082 1.63801,6.06777 2.13176,8.90235c-0.50899,-1.61849 -1.54621,-3.38936 -2.48568,-5.08945c-0.4447,-1.28306 -0.94236,-2.4216 -1.47646,-2.99265c-0.02484,-0.06021 -0.23997,-0.58162 -0.26481,-0.64183c-0.05069,-0.12459 -0.19158,-0.18717 -0.31856,-0.14002c-0.12912,0.04795 -0.19507,0.19127 -0.14767,0.32046c0.00001,0.00004 0.00003,0.00008 0.00005,0.00012l0.17216,0.46929l0.01846,-0.00677c0.00941,0.0228 0.02245,0.0544 0.03185,0.0772c0.4103,2.87161 2.24061,6.10812 3.21363,8.72802c0.52704,1.41907 1.31067,3.01363 1.75146,4.56874c-0.79689,-1.98946 -2.29687,-4.26392 -3.23947,-6.12289c-0.70979,-2.15651 -1.44748,-4.55013 -2.61225,-6.30148c-0.01682,-0.04258 -0.03363,-0.08516 -0.05045,-0.12774l-0.00138,-0.00364l0.0099,-0.00399l-0.18655,-0.46299c-0.05009,-0.12572 -0.19169,-0.18908 -0.31924,-0.14171c-0.12943,0.04807 -0.19539,0.19197 -0.14732,0.3214c0.0002,0.00054 0.0004,0.00109 0.00061,0.00163l0.17678,0.46744l0.00057,-0.00022l0.00009,0.00191c0.01938,0.04907 0.03876,0.09815 0.05813,0.14722c-0.05917,1.97407 2.60365,6.64069 3.31812,8.32937c0.14757,0.3878 0.30052,0.78078 0.46069,1.17213c0.65266,1.68918 1.27641,3.39094 1.89745,5.09325c-1.64609,-2.01391 -3.10625,-2.95772 -2.42976,1.49242zM313.14104,175.6817c1.39927,3.75483 5.16438,3.5032 8.25222,1.9316c3.20715,-1.63788 1.49488,-6.70447 0.61225,-9.47872c-1.02971,-3.23499 -3.08108,-7.1767 -6.98917,-4.87204c-2.81841,1.68124 -2.71747,4.8205 -2.61896,7.72865c0,0 0.00723,0.21336 0.20549,0.23907c0.02368,0.50651 0.07446,1.01094 0.16407,1.50733c-0.13848,0.95096 0.08746,2.16909 0.37412,2.9441z" stroke-width="0"/><path d="M330.38864,167.59763c0.17238,0.53509 0.35043,1.05956 0.51964,1.56813c0.00288,0.00854 0.00576,0.01707 0.00864,0.02561c0.0232,0.08806 0.04656,0.17574 0.07009,0.26294c-0.65945,-1.21789 -1.31022,-2.36106 -1.66032,-3.1975c-0.09913,-0.23683 -0.20189,-0.47148 -0.30716,-0.70482c-0.04682,-0.11062 -0.095,-0.21634 -0.14459,-0.31658c-0.16246,-0.35173 -0.32952,-0.70139 -0.49729,-1.05199l-0.11105,-0.24797c-0.00716,-0.01635 -0.01589,-0.03159 -0.02594,-0.04558c0.3587,0.36732 0.74633,0.74471 1.14906,1.10197c0.27975,0.8715 0.63452,1.74243 0.99892,2.6058z" stroke-width="0"/><path d="M328.43241,190.04478c-0.07995,-0.54941 -0.04164,-0.76874 0.08332,-0.75345c0.03461,0.51576 0.04583,0.99651 0.02348,1.41335c-0.03895,-0.21937 -0.07476,-0.4393 -0.10679,-0.6599z" stroke-width="0"/><path d="M331.5422,183.22287c0.00999,0.03502 0.02096,0.06957 0.03303,0.10361c-0.01751,-0.02531 -0.03508,-0.05066 -0.0527,-0.07604c0.00739,-0.00897 0.01391,-0.01824 0.01967,-0.02757z" stroke-width="0"/><path d="M312.74876,191.03689c0.11819,0.16974 0.21708,0.35703 0.29244,0.55992c0.21259,0.5724 0.20217,1.17308 0.01246,1.70666c-0.26742,-0.19131 -0.53503,-0.40636 -0.80201,-0.66057c-0.40506,-0.89855 -0.49167,-1.85976 -0.43844,-2.84972c0.56993,0.62405 0.91814,1.04941 0.93555,1.24372z" stroke-width="0.5"/></g></g></svg>