<svg version="1.1" xmlns="http://www.w3.org/2000/svg" xmlns:xlink="http://www.w3.org/1999/xlink" width="287.67396" height="233.83331" viewBox="0,0,287.67396,233.83331"><defs><linearGradient x1="320.00002" y1="64.33334" x2="320.00002" y2="295.66668" gradientUnits="userSpaceOnUse" id="color-1"><stop offset="0" stop-color="#ffffff"/><stop offset="1" stop-color="#efefef"/></linearGradient><linearGradient x1="320.00002" y1="64.33334" x2="320.00002" y2="80.00002" gradientUnits="userSpaceOnUse" id="color-2"><stop offset="0" stop-color="#ffffff"/><stop offset="1" stop-color="#cccccc"/></linearGradient></defs><g transform="translate(-240.90941,-63.08332)"><g stroke="#000000" stroke-width="2.5" stroke-miterlimit="10"><path d="M283.57835,129.48876l0.32438,0.3012c0.04467,0.04172 0.10466,0.06726 0.17061,0.06726c0.13807,0 0.25,-0.11193 0.25,-0.25c0,-0.05027 -0.01483,-0.09707 -0.04037,-0.13626l-0.26403,-0.4201l-0.02,0.01257c-0.04737,-0.13497 -0.09654,-0.26772 -0.14745,-0.39834c1.45243,-1.5068 0.46056,-4.50364 -1.71452,-6.3843c-2.66389,-2.27953 -6.43479,-2.84322 -9.22363,-4.94977c-0.49876,-0.16598 -1.06081,-0.36716 -1.65851,-0.59635c-0.56259,-0.34913 -1.11734,-0.69909 -1.65576,-1.05517c-2.87735,-1.90272 -5.89655,-3.99139 -9.05535,-5.37302c-0.55079,-0.24091 -1.15692,-0.47576 -1.75343,-0.71001c-1.28864,-1.11531 -1.96362,-2.19616 -0.61526,-2.62974c1.28166,-1.25474 3.35907,-2.38358 5.14382,-3.64735c1.32137,-0.6405 2.6328,-1.30264 3.94693,-1.95556c3.18286,-1.48643 6.30466,-3.03151 9.40473,-4.68382c2.95828,-1.59505 5.16094,-5.32232 6.43119,-8.30911c1.42649,-3.35417 1.90344,-6.64093 2.15883,-10.26984c0.23275,-3.30716 0.3331,-7.3131 -0.62136,-10.52786c-0.32315,-1.07958 -0.64201,-2.16028 -0.9641,-3.23986h19.14902c0.1447,0.6221 0.28892,1.24432 0.43261,1.86668c0.78931,3.4185 1.65046,6.80289 2.57218,10.18806c0.91717,3.36844 1.69638,6.83636 2.93577,10.10061c0.82673,2.1774 1.7774,4.31637 2.55412,6.50942l0.15004,0.42363c0,0 0.08346,0.23566 0.31912,0.15219c0.23566,-0.08347 0.15219,-0.31912 0.15219,-0.31912l-0.15004,-0.42364c-0.77799,-2.19661 -1.72993,-4.33906 -2.558,-6.51996c-1.23359,-3.24896 -2.0079,-6.7018 -2.92078,-10.05448c-0.92002,-3.37893 -1.77958,-6.75698 -2.56743,-10.16919c-0.13504,-0.58485 -0.27053,-1.16957 -0.40645,-1.75419h84.48687c0.16145,0.83179 0.35734,1.6703 0.5975,2.5254c0.97527,3.47252 2.17721,6.56485 3.72046,9.82404c1.51935,3.2087 3.39178,6.08923 5.32146,9.06625c1.91973,2.96168 4.42597,5.41516 6.82101,8.00215c2.39861,2.58682 5.33292,4.66001 8.40126,6.3344c3.11852,1.70178 6.81604,1.91528 10.31365,1.9469c3.50073,0.03164 7.00128,0.02775 10.50214,0.02776c3.495,0.00001 6.99893,-0.07121 10.49247,0.02845c3.49858,0.09981 6.99715,0.19961 10.49573,0.29942c3.46994,0.09793 6.97927,0.6507 10.43471,0.98979c3.48277,0.34177 6.96208,0.70786 10.44132,1.08381c3.47982,0.37602 6.95963,0.75203 10.43978,1.12497c3.48024,0.37295 6.96054,0.74498 10.44146,1.11153c3.8918,0.40982 6.19509,1.62058 8.93669,4.33418c2.48502,2.45965 5.27172,4.61228 7.80784,7.02345c2.5366,2.41163 5.08408,4.78942 7.46413,7.35643c2.29527,2.47558 4.7058,4.88662 6.87746,7.47277v26.4203c-3.33317,0.69324 -6.76079,0.97007 -10.06377,1.79332c-3.39475,0.84613 -6.78435,1.71753 -10.18972,2.51985c-3.40673,0.80263 -6.81345,1.60527 -10.22018,2.4079c-3.4067,0.80263 -6.81384,1.60342 -10.22077,2.40506c-3.40902,0.80213 -6.77855,1.76927 -10.1583,2.68655c-3.42312,0.92904 -6.63113,2.15372 -9.92316,3.46992c-4.64399,1.85673 -6.18044,2.22128 -5.1935,5.81024c0.90264,3.28241 2.78399,6.6253 5.21081,9.10132c2.44881,2.48998 4.80872,5.14148 7.46998,7.40341c2.66661,2.26648 5.3345,4.53136 7.99181,6.80875c2.59398,2.2231 5.61702,4.32325 7.90602,6.856c2.18485,2.4125 5.35441,4.95686 6.53958,7.99126c1.62877,4.17013 1.00976,5.393 -0.71521,9.47591c-2.28338,2.50349 -4.41842,5.52783 -7.08145,7.62102c-2.75171,2.16289 -5.50342,4.32578 -8.25513,6.48867c-2.73442,2.1493 -5.75603,3.9871 -8.63488,5.93915c-2.92463,1.98309 -5.56785,4.21715 -8.26681,6.49546c-2.33795,1.97356 -4.96942,5.86588 -5.23472,9.02899c-0.31665,3.77541 -0.32268,6.88486 1.53025,10.26922c1.66591,3.04278 3.74025,5.98166 5.81974,8.76531c2.09942,2.80942 4.44558,5.40212 6.64753,8.13211c1.33149,1.65079 2.6145,3.23111 3.81154,4.89189h-117.63544c2.76059,-0.83481 5.51417,-1.65192 8.33893,-2.26587c3.42015,-0.74335 6.8403,-1.4867 10.26045,-2.23005c3.41968,-0.74325 6.84468,-1.46072 10.26916,-2.18146c3.42497,-0.72083 6.84993,-1.44167 10.2749,-2.1625c3.4109,-0.71787 6.90936,-1.11815 10.35459,-1.64828c3.47303,-0.5344 6.92008,-1.06438 10.35264,-1.81871c3.57014,-0.78456 6.75165,-1.44825 10.0024,-3.14277c2.50569,-1.30614 -3.55611,-5.18532 -5.43083,-6.91899c-2.11262,-2.78012 -4.24498,-5.53949 -6.27297,-8.38222c-2.03316,-2.84998 -4.03182,-5.71005 -5.96659,-8.62782c-1.93674,-2.92076 -3.81412,-5.84674 -5.59353,-8.86615c-1.77692,-3.01519 -3.50077,-6.05475 -5.20704,-9.11043c-1.58362,-2.83526 -2.69569,-7.8878 -6.16479,-7.42113c-3.47341,0.47741 -6.93015,0.80746 -10.42511,1.08333c-3.49574,0.27593 -6.95121,0.55004 -10.45862,0.55004c-3.5,0 -7,0 -10.5,0c-3.5,0 -7,0 -10.5,0c-3.5,0 -7,0 -10.5,0c-0.37651,0 -0.75301,0 -1.12952,0c0.00693,-0.0145 0.01008,-0.02394 0.01008,-0.02394c0.94595,-2.83784 2.43549,-5.46429 3.33656,-8.34744c1.05787,-3.38486 1.71369,-6.75512 2.43947,-10.2217c0.7189,-3.43376 1.39619,-6.86022 1.97935,-10.31974c0.58163,-3.45043 1.45159,-6.84223 2.10097,-10.28042c0.6483,-3.43247 1.53487,-6.94256 1.29025,-10.43749c-0.27022,-3.8607 -2.10751,-6.43733 -4.77069,-9.14178c-2.44364,-2.4815 -5.86702,-3.89594 -8.9103,-5.57187c-3.12955,-1.57071 -6.25936,-3.14089 -9.38906,-4.71131c-3.14042,-1.57581 -6.45019,-2.73153 -9.7316,-3.98391c-3.26892,-1.24761 -6.5399,-2.48593 -9.78486,-3.79474c-3.24592,-1.3092 -6.49184,-2.61839 -9.73776,-3.92759c-3.24821,-1.31012 -6.49715,-2.61061 -9.76897,-3.86071c-3.26948,-1.24921 -6.53896,-2.49841 -9.80843,-3.74762c-3.2722,-1.25025 -6.51455,-2.51584 -9.71905,-3.9313c-3.20158,-1.41417 -6.40316,-2.82834 -9.60474,-4.24252c-3.19673,-1.41203 -6.29717,-3.03903 -9.42364,-4.6c-2.9183,-1.45704 -6.45183,-3.25103 -8.51983,-5.80211c-2.20938,-2.69579 1.52622,-3.41862 3.46601,-4.49771c1.25525,-0.00956 2.45977,0.01243 3.81782,0.14426c0.80451,0.24988 1.60902,0.49975 2.41353,0.74963c2.38298,1.61021 6.30934,3.10809 8.77339,3.82518c3.272,0.95205 6.89386,1.72062 9.98972,3.04775c3.49133,0.13828 6.8626,0.74784 10.45189,0.74784c0.6431,0 1.18696,-0.08419 1.63943,-0.23628c0.28877,0.04571 0.57779,0.08954 0.86714,0.13066z" fill="url(#color-1)"/><path d="M387.82431,64.33336c0.16145,0.83179 0.35734,1.6703 0.5975,2.5254c0.97527,3.47252 2.17721,6.56485 3.72046,9.82404c0.54021,1.14087 1.12506,2.24024 1.74124,3.31722h-86.58654c-0.32974,-1.25122 -0.64822,-2.5041 -0.98564,-3.74331c-0.92002,-3.37893 -1.77958,-6.75698 -2.56743,-10.16919c-0.13504,-0.58484 -0.27053,-1.16956 -0.40645,-1.75417z" fill="url(#color-2)"/></g></g></svg>