<svg version="1.1" xmlns="http://www.w3.org/2000/svg" xmlns:xlink="http://www.w3.org/1999/xlink" width="172.88724" height="121.75298" viewBox="0,0,172.88724,121.75298"><g transform="translate(-231.46224,-152.875)"><g stroke-miterlimit="10"><text transform="translate(236.66003,174) scale(0.5,0.5)" font-size="40" xml:space="preserve" fill="#ffffff" stroke="#000000" stroke-width="2" stroke-linecap="butt" font-family="&quot;Google Archivo Black&quot;, Archivo Black" font-weight="400" text-anchor="start"><tspan x="0" dy="0">select enemies</tspan><tspan x="0" dy="48px">to kill them</tspan></text><path d="M231.46224,262.68815v-54.66667h54.66667v54.66667z" fill-opacity="0.49804" fill="#00feff" stroke="#000000" stroke-width="0" stroke-linecap="butt"/><path d="M243.46224,235.77148c0,-7.87006 6.37994,-14.25 14.25,-14.25c7.87006,0 14.25,6.37994 14.25,14.25c0,7.87006 -6.37994,14.25001 -14.25,14.25001c-7.87006,0 -14.25,-6.37994 -14.25,-14.25001zM257.64364,246.83404c9.79818,0.0485 10.80948,-9.16645 10.80948,-9.16645h-21.01364c0,0 0.75235,9.11966 10.20416,9.16645zM262.90999,233.26022c1.06439,0 1.92725,-0.86286 1.92725,-1.92725c0,-1.06439 -0.86286,-1.92725 -1.92725,-1.92725c-1.06439,0 -1.92725,0.86286 -1.92725,1.92725c0,1.06439 0.86286,1.92725 1.92725,1.92725zM252.5145,233.26022c1.06439,0 1.92725,-0.86286 1.92725,-1.92725c0,-1.06439 -0.86286,-1.92725 -1.92725,-1.92725c-1.06439,0 -1.92725,0.86286 -1.92725,1.92725c0,1.06439 0.86286,1.92725 1.92725,1.92725z" fill="#ffffff" stroke="none" stroke-width="0" stroke-linecap="butt"/><path d="M285.46224,262.52148l0.33333,8l3,0.16667l2,3.66667l3.33333,-0.5l-3,-4.5l1.5,-2z" fill="#ffffff" stroke="#000000" stroke-width="0.5" stroke-linecap="round"/></g></g></svg>